<?xml version="1.0" encoding="iso-8859-1"?>
<!-- Generator: Adobe Illustrator 21.0.0, SVG Export Plug-In . SVG Version: 6.00 Build 0)  -->
<svg xmlns="http://www.w3.org/2000/svg" xmlns:xlink="http://www.w3.org/1999/xlink" version="1.1" id="Capa_1" x="0px" y="0px" viewBox="0 0 512 512" style="enable-background:new 0 0 512 512;" xml:space="preserve" width="512" height="512">
<g>
	<path style="fill:#C3DDFF;" d="M437.507,206.225c20.612-41.463-26.865-85.66-66.821-62.292   c14.163-59.124-32.096-117.55-92.8-117.55c-56.361,0-101.388,50.644-94.748,106.624c-21.724-20.435-54.472-23.103-80.043-8.322   c-28.288,16.352-40.922,50.914-29.02,81.614C36.223,213.121,7.5,246.167,7.5,285.935v0.975c0,44.707,36.289,80.95,81.054,80.95   h334.893c44.765,0,81.054-36.242,81.054-80.95v-0.975C504.5,246.02,475.565,212.877,437.507,206.225z"/>
	<g>
		<path style="fill:#A4CCFF;" d="M34.075,226.3c-0.026-0.069-0.048-0.138-0.075-0.206c-0.105,0.096-0.213,0.19-0.318,0.286    C33.814,226.355,33.943,226.323,34.075,226.3z"/>
		<path style="fill:#A4CCFF;" d="M437.507,206.225c20.612-41.464-26.865-85.66-66.821-62.292    c14.163-59.124-32.096-117.55-92.8-117.55c-23.059,0-44.218,8.481-60.721,22.332c6.672-1.523,13.606-2.332,20.721-2.332    c60.704,0,106.963,58.426,92.8,117.55c39.955-23.368,87.433,20.828,66.821,62.292c38.059,6.652,66.993,39.795,66.993,79.71v0.975    c0,23.566-10.09,44.772-26.183,59.566c37.658-6.978,66.183-39.935,66.183-79.566v-0.975    C504.5,246.021,475.565,212.877,437.507,206.225z"/>
	</g>
	<g>
		<g>
			<path style="fill:#FFE07D;" d="M372.579,346.534c0-2.988-2.445-5.433-5.433-5.433H196.377c0,0-12.152-17.128-16.544-23.129     c-0.623-0.852-1.611-2.015-3.71-2.015h-31.268c-2.988,0-5.433,2.445-5.433,5.433v158.793c0,2.988,2.445,5.433,5.433,5.433     h222.521c2.874,0,5.203-2.33,5.203-5.203V346.534z"/>
		</g>
		<g>
			<path style="fill:#FFD064;" d="M149.833,317.972c4.392,6.001,16.544,23.129,16.544,23.129h30c0,0-12.152-17.127-16.544-23.129     c-0.623-0.852-1.611-2.014-3.71-2.014h-30C148.222,315.958,149.209,317.12,149.833,317.972z"/>
			<path style="fill:#FFD064;" d="M367.146,341.101h-30c2.988,0,5.433,2.445,5.433,5.433v133.879c0,2.874-2.33,5.203-5.203,5.203h30     c2.874,0,5.203-2.33,5.203-5.203V346.534C372.579,343.546,370.134,341.101,367.146,341.101z"/>
		</g>
		<path style="fill:#857E87;" d="M209.221,277.104h38.301c2.473,0,4.478,2.005,4.478,4.478v129.072c0,2.473,2.005,4.478,4.478,4.478    h43.044c2.473,0,4.478-2.005,4.478-4.478V281.582c0-2.473,2.005-4.478,4.478-4.478h37.819c3.776,0,5.857-4.386,3.468-7.311    l-68.538-83.912c-1.792-2.194-5.145-2.194-6.937,0l-68.538,83.912C203.364,272.717,205.445,277.104,209.221,277.104z"/>
		<g>
			<path style="fill:#5D5360;" d="M274,281.582v129.072c0,2.473-2.005,4.478-4.478,4.478h30c2.473,0,4.478-2.005,4.478-4.478     V281.582c0-2.473,2.005-4.478,4.478-4.478h-30C276.005,277.104,274,279.109,274,281.582z"/>
			<path style="fill:#5D5360;" d="M349.766,269.793l-68.538-83.912c-1.792-2.194-5.145-2.194-6.937,0l-11.532,14.118l57.007,69.794     c2.389,2.925,0.308,7.311-3.468,7.311h30C350.074,277.104,352.155,272.717,349.766,269.793z"/>
		</g>
	</g>
</g>
<path d="M447.671,200.855c1.526-5.086,2.296-10.368,2.296-15.786c0-30.409-24.768-55.149-55.211-55.149  c-4.899,0-9.759,0.653-14.449,1.924c0.333-3.373,0.501-6.766,0.501-10.161c0-56.684-46.171-102.8-102.922-102.8  c-55.38,0-100.684,43.911-102.842,98.706c-11.446-6.776-24.544-10.401-38.103-10.401c-9.569,0-18.894,1.78-27.715,5.29  c-8.987,3.578-3.442,17.508,5.547,13.938c7.048-2.806,14.507-4.228,22.168-4.228c15.313,0,29.895,5.783,41.058,16.283  c4.993,4.7,13.391,0.44,12.587-6.346c-4.662-39.265,18.391-77.709,55.18-92.177c10.208-4.015,21.152-6.066,32.12-6.066  c48.48,0,87.922,39.387,87.922,87.8c0,6.915-0.813,13.813-2.415,20.504c-1.501,6.273,5.492,11.489,11.081,8.221  c6.138-3.59,13.15-5.487,20.282-5.487c22.173,0,40.211,18.011,40.211,40.149c0,6.248-1.405,12.242-4.176,17.816  c-2.194,4.412,0.583,9.881,5.425,10.727C471.437,219.769,497,250.186,497,285.936v0.976c0,40.5-32.996,73.449-73.554,73.449h-43.367  v-13.826c0-7.131-5.802-12.933-12.934-12.933H311.5v-48.998h44.237c6.187,0,9.736-7.436,5.809-12.244l-77.978-95.469  c-1.425-1.744-3.557-2.756-5.809-2.756s-4.384,1.012-5.809,2.756l-77.979,95.469c-3.927,4.805-0.382,12.244,5.809,12.244H244.5  v48.998h-44.251c-3.733-5.253-11.1-15.598-14.364-20.059c-3.076-4.203-7.007-5.085-9.763-5.085h-31.268  c-7.132,0-12.934,5.802-12.934,12.933v38.97H88.554C47.996,360.36,15,327.411,15,286.911v-0.976  c0-35.561,25.404-65.948,60.405-72.255c4.568-0.822,7.346-5.753,5.663-10.092c-2.678-6.906-4.035-14.167-4.035-21.579  c0-13.94,4.905-27.511,13.813-38.212c6.187-7.434-5.342-17.032-11.529-9.596c-11.146,13.39-17.283,30.368-17.283,47.808  c0,6.391,0.807,12.69,2.404,18.818C26.632,211.442,0,245.977,0,285.936v0.976c0,48.771,39.725,88.449,88.554,88.449h43.367v104.823  c0,7.132,5.802,12.934,12.934,12.934h222.521c7.005,0,12.704-5.699,12.704-12.704V446c0-9.673-15-9.673-15,0v32.117H146.921V323.458  h27.629c4.816,6.631,15.596,21.822,15.71,21.983c1.407,1.982,3.687,3.16,6.117,3.16H244.5v66.53c0,4.143,3.357,7.5,7.5,7.5h52  c4.143,0,7.5-3.357,7.5-7.5v-66.53h53.579V414c0,9.673,15,9.673,15,0v-38.64h43.367c48.829,0,88.554-39.678,88.554-88.449v-0.976  C512,245.945,485.44,211.497,447.671,200.855z M296.5,407.632h-37V277.104c0-4.143-3.357-7.5-7.5-7.5h-36.409l62.169-76.112  l62.168,76.112H304c-4.143,0-7.5,3.357-7.5,7.5V407.632z"/>















</svg>
